<!-- <svg width="160" height="24" viewBox="0 0 160 24" fill="none" xmlns="http://www.w3.org/2000/svg">
<path d="M56.7784 0.728693V23.4531H55.429V0.728693H56.7784Z" fill="#F2B311"/>
<path d="M64.87 18.2024C63.804 18.2024 62.8864 17.9865 62.1172 17.5547C61.3525 17.1184 60.7633 16.5021 60.3494 15.706C59.9356 14.9053 59.7287 13.9585 59.7287 12.8654C59.7287 11.7994 59.9356 10.8638 60.3494 10.0586C60.7633 9.25343 61.3458 8.62595 62.0969 8.17614C62.8526 7.72633 63.7388 7.50142 64.7553 7.50142C65.439 7.50142 66.0755 7.61162 66.6648 7.83203C67.2585 8.04794 67.7758 8.37405 68.2166 8.81037C68.6619 9.24669 69.0083 9.79545 69.2557 10.4567C69.5031 11.1134 69.6268 11.8826 69.6268 12.7642V13.5536H60.8757V11.7724H66.9212C66.9212 11.3585 66.8312 10.992 66.6513 10.6726C66.4714 10.3532 66.2217 10.1036 65.9023 9.92365C65.5875 9.73923 65.2209 9.64702 64.8026 9.64702C64.3662 9.64702 63.9794 9.74822 63.642 9.95064C63.3092 10.1486 63.0483 10.4162 62.8594 10.7536C62.6705 11.0864 62.5737 11.4575 62.5692 11.8668V13.5604C62.5692 14.0732 62.6637 14.5162 62.8526 14.8896C63.046 15.2629 63.3182 15.5508 63.669 15.7532C64.0199 15.9556 64.436 16.0568 64.9173 16.0568C65.2366 16.0568 65.529 16.0118 65.7944 15.9219C66.0598 15.8319 66.2869 15.697 66.4759 15.517C66.6648 15.3371 66.8087 15.1167 66.9077 14.8558L69.5661 15.0312C69.4311 15.67 69.1545 16.2277 68.7362 16.7045C68.3223 17.1768 67.7871 17.5457 67.1303 17.8111C66.4781 18.072 65.7247 18.2024 64.87 18.2024ZM73.7189 7.63636L75.6216 11.2596L77.5716 7.63636H80.5201L77.5176 12.8182L80.601 18H77.666L75.6216 14.4173L73.611 18H70.6422L73.7189 12.8182L70.7502 7.63636H73.7189ZM82.2271 21.8864V7.63636H85.0609V9.37713H85.1891C85.315 9.09825 85.4972 8.81487 85.7356 8.52699C85.9785 8.23461 86.2934 7.99171 86.6802 7.7983C87.0716 7.60038 87.5574 7.50142 88.1376 7.50142C88.8933 7.50142 89.5905 7.69934 90.2292 8.09517C90.868 8.48651 91.3785 9.07801 91.7608 9.86967C92.1432 10.6568 92.3343 11.6442 92.3343 12.8317C92.3343 13.9877 92.1477 14.9638 91.7743 15.7599C91.4055 16.5516 90.9017 17.1521 90.263 17.5614C89.6287 17.9663 88.918 18.1687 88.1309 18.1687C87.5731 18.1687 87.0985 18.0765 86.7072 17.892C86.3204 17.7076 86.0033 17.476 85.7559 17.1971C85.5085 16.9137 85.3195 16.6281 85.1891 16.3402H85.1014V21.8864H82.2271ZM85.0407 12.8182C85.0407 13.4344 85.1261 13.9719 85.2971 14.4308C85.468 14.8896 85.7154 15.2472 86.0392 15.5036C86.3631 15.7554 86.7567 15.8814 87.22 15.8814C87.6878 15.8814 88.0836 15.7532 88.4075 15.4968C88.7314 15.2359 88.9765 14.8761 89.1429 14.4173C89.3139 13.954 89.3993 13.4209 89.3993 12.8182C89.3993 12.2199 89.3161 11.6937 89.1497 11.2393C88.9833 10.785 88.7381 10.4297 88.4142 10.1733C88.0904 9.9169 87.6923 9.78871 87.22 9.78871C86.7522 9.78871 86.3564 9.9124 86.0325 10.1598C85.7131 10.4072 85.468 10.758 85.2971 11.2124C85.1261 11.6667 85.0407 12.2019 85.0407 12.8182ZM94.2505 18V7.63636H97.0371V9.4446H97.1451C97.334 8.80137 97.6511 8.31558 98.0964 7.98722C98.5417 7.65436 99.0545 7.48793 99.6348 7.48793C99.7787 7.48793 99.9339 7.49692 100.1 7.51491C100.267 7.53291 100.413 7.55765 100.539 7.58913V10.1396C100.404 10.0991 100.217 10.0631 99.9789 10.0316C99.7405 10.0001 99.5223 9.98438 99.3244 9.98438C98.9016 9.98438 98.5237 10.0766 98.1909 10.261C97.8625 10.4409 97.6016 10.6928 97.4082 11.0167C97.2193 11.3406 97.1248 11.7139 97.1248 12.1367V18H94.2505ZM106.266 18.2024C105.199 18.2024 104.282 17.9865 103.513 17.5547C102.748 17.1184 102.159 16.5021 101.745 15.706C101.331 14.9053 101.124 13.9585 101.124 12.8654C101.124 11.7994 101.331 10.8638 101.745 10.0586C102.159 9.25343 102.741 8.62595 103.492 8.17614C104.248 7.72633 105.134 7.50142 106.151 7.50142C106.835 7.50142 107.471 7.61162 108.06 7.83203C108.654 8.04794 109.171 8.37405 109.612 8.81037C110.057 9.24669 110.404 9.79545 110.651 10.4567C110.899 11.1134 111.022 11.8826 111.022 12.7642V13.5536H102.271V11.7724H108.317C108.317 11.3585 108.227 10.992 108.047 10.6726C107.867 10.3532 107.617 10.1036 107.298 9.92365C106.983 9.73923 106.616 9.64702 106.198 9.64702C105.762 9.64702 105.375 9.74822 105.038 9.95064C104.705 10.1486 104.444 10.4162 104.255 10.7536C104.066 11.0864 103.969 11.4575 103.965 11.8668V13.5604C103.965 14.0732 104.059 14.5162 104.248 14.8896C104.442 15.2629 104.714 15.5508 105.065 15.7532C105.415 15.9556 105.831 16.0568 106.313 16.0568C106.632 16.0568 106.925 16.0118 107.19 15.9219C107.455 15.8319 107.682 15.697 107.871 15.517C108.06 15.3371 108.204 15.1167 108.303 14.8558L110.962 15.0312C110.827 15.67 110.55 16.2277 110.132 16.7045C109.718 17.1768 109.183 17.5457 108.526 17.8111C107.874 18.072 107.12 18.2024 106.266 18.2024ZM121.521 10.5916L118.889 10.7536C118.844 10.5286 118.748 10.3262 118.599 10.1463C118.451 9.96188 118.255 9.8157 118.012 9.70774C117.774 9.59529 117.488 9.53906 117.155 9.53906C116.71 9.53906 116.335 9.63352 116.029 9.82244C115.723 10.0069 115.57 10.2543 115.57 10.5646C115.57 10.812 115.669 11.0212 115.867 11.1921C116.065 11.363 116.404 11.5002 116.886 11.6037L118.761 11.9815C119.769 12.1884 120.52 12.5213 121.015 12.9801C121.51 13.4389 121.757 14.0417 121.757 14.7884C121.757 15.4676 121.557 16.0636 121.157 16.5763C120.761 17.0891 120.216 17.4895 119.524 17.7773C118.835 18.0607 118.042 18.2024 117.142 18.2024C115.77 18.2024 114.677 17.9168 113.863 17.3455C113.053 16.7698 112.579 15.9871 112.439 14.9975L115.266 14.8491C115.352 15.2674 115.559 15.5868 115.887 15.8072C116.215 16.0231 116.636 16.131 117.149 16.131C117.652 16.131 118.057 16.0343 118.363 15.8409C118.674 15.643 118.831 15.3888 118.835 15.0785C118.831 14.8176 118.721 14.6039 118.505 14.4375C118.289 14.2666 117.956 14.1361 117.506 14.0462L115.712 13.6886C114.699 13.4862 113.946 13.1353 113.451 12.636C112.961 12.1367 112.716 11.5002 112.716 10.7266C112.716 10.0608 112.896 9.48733 113.256 9.00604C113.62 8.52474 114.13 8.15365 114.787 7.89276C115.448 7.63187 116.222 7.50142 117.108 7.50142C118.417 7.50142 119.447 7.77805 120.198 8.33132C120.954 8.88459 121.395 9.63802 121.521 10.5916ZM132.19 10.5916L129.558 10.7536C129.513 10.5286 129.417 10.3262 129.268 10.1463C129.12 9.96188 128.924 9.8157 128.681 9.70774C128.443 9.59529 128.157 9.53906 127.824 9.53906C127.379 9.53906 127.003 9.63352 126.698 9.82244C126.392 10.0069 126.239 10.2543 126.239 10.5646C126.239 10.812 126.338 11.0212 126.536 11.1921C126.734 11.363 127.073 11.5002 127.555 11.6037L129.43 11.9815C130.438 12.1884 131.189 12.5213 131.684 12.9801C132.179 13.4389 132.426 14.0417 132.426 14.7884C132.426 15.4676 132.226 16.0636 131.825 16.5763C131.43 17.0891 130.885 17.4895 130.193 17.7773C129.504 18.0607 128.711 18.2024 127.811 18.2024C126.439 18.2024 125.346 17.9168 124.532 17.3455C123.722 16.7698 123.248 15.9871 123.108 14.9975L125.935 14.8491C126.021 15.2674 126.228 15.5868 126.556 15.8072C126.884 16.0231 127.305 16.131 127.818 16.131C128.321 16.131 128.726 16.0343 129.032 15.8409C129.343 15.643 129.5 15.3888 129.504 15.0785C129.5 14.8176 129.39 14.6039 129.174 14.4375C128.958 14.2666 128.625 14.1361 128.175 14.0462L126.381 13.6886C125.368 13.4862 124.615 13.1353 124.12 12.636C123.63 12.1367 123.385 11.5002 123.385 10.7266C123.385 10.0608 123.565 9.48733 123.925 9.00604C124.289 8.52474 124.799 8.15365 125.456 7.89276C126.117 7.63187 126.891 7.50142 127.777 7.50142C129.086 7.50142 130.116 7.77805 130.867 8.33132C131.623 8.88459 132.064 9.63802 132.19 10.5916Z" fill="#F2B311"/>
<rect y="1" width="51" height="22" rx="3" fill="#60126C"/>
<path d="M8.61719 8.02539H12.2324V12.0391L8.61719 8.02539ZM4.79102 10.3809H4.75586C4.75586 9.57617 4.97461 8.98242 5.41211 8.59961C5.84961 8.2168 6.52344 8.02539 7.43359 8.02539L12.2324 13.8496C12.2324 14.623 12.0234 15.1758 11.6055 15.5078C11.1992 15.832 10.5352 15.9941 9.61328 15.9941L4.79102 10.3809ZM4.77344 11.9629L8.25391 16H4.77344V11.9629ZM22.6914 8.01953H23.2188C24.6562 8.01953 25.5156 8.50781 25.7969 9.48438C25.8867 9.80078 25.9316 10.166 25.9316 10.5801V16H22.6914V8.01953ZM18.3438 8.01953H21.6016V16H18.3438V8.01953ZM13.9844 8.01953H17.2422V16H13.9844V8.01953ZM34.6445 8.02539H37.2695V11.3359H36.6133C36.1836 11.3359 35.8672 11.291 35.6641 11.2012C35.4609 11.1074 35.3008 11.0039 35.1836 10.8906C35.0703 10.7734 34.9727 10.6211 34.8906 10.4336C34.7266 10.0508 34.6445 9.51953 34.6445 8.83984V8.02539ZM30.8535 8.02539H34.0059V16H30.8535V8.02539ZM27.5723 8.02539H30.1973V8.83984C30.1973 9.84375 30.0156 10.5273 29.6523 10.8906C29.3555 11.1875 28.8809 11.3359 28.2285 11.3359H27.5723V8.02539ZM42.5957 8.02539H43.0293C44.1895 8.02539 45.0566 8.30469 45.6309 8.86328C46.1582 9.375 46.4219 10.0996 46.4219 11.0371C46.4219 11.8691 46.1484 12.5391 45.6016 13.0469C45.0195 13.5859 44.2168 13.8555 43.1934 13.8555H42.5957V8.02539ZM38.3887 8.02539H41.541V15.9883H38.3887V8.02539Z" fill="white"/>
<path d="M135.5 12V5H138.281C138.792 5 139.218 5.07633 139.559 5.229C139.901 5.38167 140.158 5.59359 140.329 5.86475C140.501 6.13363 140.587 6.44352 140.587 6.79443C140.587 7.06787 140.533 7.30827 140.424 7.51563C140.316 7.7207 140.167 7.88932 139.977 8.02148C139.789 8.15137 139.574 8.24365 139.332 8.29834V8.3667C139.597 8.37809 139.844 8.45329 140.075 8.59229C140.308 8.73128 140.497 8.92611 140.641 9.17676C140.786 9.42513 140.858 9.72135 140.858 10.0654C140.858 10.4368 140.767 10.7684 140.584 11.0601C140.403 11.3494 140.135 11.5785 139.78 11.7471C139.425 11.9157 138.987 12 138.467 12H135.5ZM136.968 10.79H138.166C138.575 10.79 138.873 10.7114 139.061 10.5542C139.249 10.3947 139.342 10.1828 139.342 9.91846C139.342 9.72477 139.296 9.55387 139.203 9.40576C139.111 9.25765 138.978 9.14144 138.807 9.05713C138.637 8.97282 138.435 8.93066 138.2 8.93066H136.968V10.79ZM136.968 7.9292H138.057C138.258 7.9292 138.437 7.89388 138.593 7.82324C138.751 7.75033 138.876 7.64779 138.966 7.51563C139.059 7.38346 139.105 7.2251 139.105 7.04053C139.105 6.7876 139.016 6.58366 138.837 6.42871C138.661 6.27376 138.41 6.19629 138.084 6.19629H136.968V7.9292Z" fill="white"/>
<path d="M141.814 12V5H146.494V6.22021H143.282V7.88818H146.253V9.1084H143.282V10.7798H146.508V12H141.814Z" fill="white"/>
<path d="M147.397 6.22021V5H153.101V6.22021H150.975V12H149.523V6.22021H147.397Z" fill="white"/>
<path d="M154.389 12H152.816L155.213 5H157.106L159.5 12H157.926L156.187 6.59961H156.132L154.389 12ZM154.291 9.24854H158.008V10.4038H154.291V9.24854Z" fill="white"/>
</svg> -->

<svg width="70" height="13" viewBox="0 0 178 24" fill="none" xmlns="http://www.w3.org/2000/svg">
<path d="M56.7784 0.728693V23.4531H55.429V0.728693H56.7784Z" fill="#F2B311"/>
<path d="M139.368 18.0739V7.20312H142.168V8.21307H140.587V17.0639H142.168V18.0739H139.368ZM143.494 17V8.27273H146.69C147.309 8.27273 147.822 8.375 148.228 8.57955C148.635 8.78125 148.939 9.0554 149.14 9.40199C149.342 9.74574 149.443 10.1335 149.443 10.5653C149.443 10.929 149.376 11.2358 149.243 11.4858C149.109 11.733 148.93 11.9318 148.706 12.0824C148.484 12.2301 148.24 12.3381 147.973 12.4062V12.4915C148.262 12.5057 148.545 12.5994 148.821 12.7727C149.099 12.9432 149.329 13.1861 149.511 13.5014C149.693 13.8168 149.784 14.2003 149.784 14.652C149.784 15.098 149.679 15.4986 149.468 15.8537C149.261 16.206 148.94 16.4858 148.505 16.6932C148.071 16.8977 147.515 17 146.839 17H143.494ZM144.811 15.8707H146.711C147.342 15.8707 147.794 15.7486 148.066 15.5043C148.339 15.2599 148.475 14.9545 148.475 14.5881C148.475 14.3125 148.406 14.0597 148.267 13.8295C148.127 13.5994 147.929 13.4162 147.67 13.2798C147.414 13.1435 147.11 13.0753 146.758 13.0753H144.811V15.8707ZM144.811 12.0483H146.575C146.87 12.0483 147.136 11.9915 147.372 11.8778C147.61 11.7642 147.799 11.6051 147.939 11.4006C148.081 11.1932 148.152 10.9489 148.152 10.6676C148.152 10.3068 148.025 10.0043 147.772 9.75994C147.52 9.51562 147.132 9.39347 146.609 9.39347H144.811V12.0483ZM151.346 17V8.27273H156.817V9.40625H152.662V12.0653H156.532V13.1946H152.662V15.8665H156.868V17H151.346ZM158.146 9.40625V8.27273H164.9V9.40625H162.177V17H160.864V9.40625H158.146ZM166.098 17H164.701L167.841 8.27273H169.363L172.503 17H171.105L168.638 9.85795H168.57L166.098 17ZM166.333 13.5824H170.867V14.6903H166.333V13.5824ZM175.971 7.20312V18.0739H173.171V17.0639H174.752V8.21307H173.171V7.20312H175.971Z" fill="white"/>
<path d="M64.87 18.2024C63.804 18.2024 62.8864 17.9865 62.1172 17.5547C61.3525 17.1184 60.7633 16.5021 60.3494 15.706C59.9356 14.9053 59.7287 13.9585 59.7287 12.8654C59.7287 11.7994 59.9356 10.8638 60.3494 10.0586C60.7633 9.25343 61.3458 8.62595 62.0969 8.17614C62.8526 7.72633 63.7388 7.50142 64.7553 7.50142C65.439 7.50142 66.0755 7.61162 66.6648 7.83203C67.2585 8.04794 67.7758 8.37405 68.2166 8.81037C68.6619 9.24669 69.0083 9.79545 69.2557 10.4567C69.5031 11.1134 69.6268 11.8826 69.6268 12.7642V13.5536H60.8757V11.7724H66.9212C66.9212 11.3585 66.8312 10.992 66.6513 10.6726C66.4714 10.3532 66.2217 10.1036 65.9023 9.92365C65.5875 9.73923 65.2209 9.64702 64.8026 9.64702C64.3662 9.64702 63.9794 9.74822 63.642 9.95064C63.3092 10.1486 63.0483 10.4162 62.8594 10.7536C62.6705 11.0864 62.5737 11.4575 62.5692 11.8668V13.5604C62.5692 14.0732 62.6637 14.5162 62.8526 14.8896C63.046 15.2629 63.3182 15.5508 63.669 15.7532C64.0199 15.9556 64.436 16.0568 64.9173 16.0568C65.2366 16.0568 65.529 16.0118 65.7944 15.9219C66.0598 15.8319 66.2869 15.697 66.4759 15.517C66.6648 15.3371 66.8087 15.1167 66.9077 14.8558L69.5661 15.0312C69.4311 15.67 69.1545 16.2277 68.7362 16.7045C68.3223 17.1768 67.7871 17.5457 67.1303 17.8111C66.4781 18.072 65.7247 18.2024 64.87 18.2024ZM73.7189 7.63636L75.6216 11.2596L77.5716 7.63636H80.5201L77.5176 12.8182L80.601 18H77.666L75.6216 14.4173L73.611 18H70.6422L73.7189 12.8182L70.7502 7.63636H73.7189ZM82.2271 21.8864V7.63636H85.0609V9.37713H85.1891C85.315 9.09825 85.4972 8.81487 85.7356 8.52699C85.9785 8.23461 86.2934 7.99171 86.6802 7.7983C87.0716 7.60038 87.5574 7.50142 88.1376 7.50142C88.8933 7.50142 89.5905 7.69934 90.2292 8.09517C90.868 8.48651 91.3785 9.07801 91.7608 9.86967C92.1432 10.6568 92.3343 11.6442 92.3343 12.8317C92.3343 13.9877 92.1477 14.9638 91.7743 15.7599C91.4055 16.5516 90.9017 17.1521 90.263 17.5614C89.6287 17.9663 88.918 18.1687 88.1309 18.1687C87.5731 18.1687 87.0985 18.0765 86.7072 17.892C86.3204 17.7076 86.0033 17.476 85.7559 17.1971C85.5085 16.9137 85.3195 16.6281 85.1891 16.3402H85.1014V21.8864H82.2271ZM85.0407 12.8182C85.0407 13.4344 85.1261 13.9719 85.2971 14.4308C85.468 14.8896 85.7154 15.2472 86.0392 15.5036C86.3631 15.7554 86.7567 15.8814 87.22 15.8814C87.6878 15.8814 88.0836 15.7532 88.4075 15.4968C88.7314 15.2359 88.9765 14.8761 89.1429 14.4173C89.3139 13.954 89.3993 13.4209 89.3993 12.8182C89.3993 12.2199 89.3161 11.6937 89.1497 11.2393C88.9833 10.785 88.7381 10.4297 88.4142 10.1733C88.0904 9.9169 87.6923 9.78871 87.22 9.78871C86.7522 9.78871 86.3564 9.9124 86.0325 10.1598C85.7131 10.4072 85.468 10.758 85.2971 11.2124C85.1261 11.6667 85.0407 12.2019 85.0407 12.8182ZM94.2505 18V7.63636H97.0371V9.4446H97.1451C97.334 8.80137 97.6511 8.31558 98.0964 7.98722C98.5417 7.65436 99.0545 7.48793 99.6348 7.48793C99.7787 7.48793 99.9339 7.49692 100.1 7.51491C100.267 7.53291 100.413 7.55765 100.539 7.58913V10.1396C100.404 10.0991 100.217 10.0631 99.9789 10.0316C99.7405 10.0001 99.5223 9.98438 99.3244 9.98438C98.9016 9.98438 98.5237 10.0766 98.1909 10.261C97.8625 10.4409 97.6016 10.6928 97.4082 11.0167C97.2193 11.3406 97.1248 11.7139 97.1248 12.1367V18H94.2505ZM106.266 18.2024C105.199 18.2024 104.282 17.9865 103.513 17.5547C102.748 17.1184 102.159 16.5021 101.745 15.706C101.331 14.9053 101.124 13.9585 101.124 12.8654C101.124 11.7994 101.331 10.8638 101.745 10.0586C102.159 9.25343 102.741 8.62595 103.492 8.17614C104.248 7.72633 105.134 7.50142 106.151 7.50142C106.835 7.50142 107.471 7.61162 108.06 7.83203C108.654 8.04794 109.171 8.37405 109.612 8.81037C110.057 9.24669 110.404 9.79545 110.651 10.4567C110.899 11.1134 111.022 11.8826 111.022 12.7642V13.5536H102.271V11.7724H108.317C108.317 11.3585 108.227 10.992 108.047 10.6726C107.867 10.3532 107.617 10.1036 107.298 9.92365C106.983 9.73923 106.616 9.64702 106.198 9.64702C105.762 9.64702 105.375 9.74822 105.038 9.95064C104.705 10.1486 104.444 10.4162 104.255 10.7536C104.066 11.0864 103.969 11.4575 103.965 11.8668V13.5604C103.965 14.0732 104.059 14.5162 104.248 14.8896C104.442 15.2629 104.714 15.5508 105.065 15.7532C105.415 15.9556 105.831 16.0568 106.313 16.0568C106.632 16.0568 106.925 16.0118 107.19 15.9219C107.455 15.8319 107.682 15.697 107.871 15.517C108.06 15.3371 108.204 15.1167 108.303 14.8558L110.962 15.0312C110.827 15.67 110.55 16.2277 110.132 16.7045C109.718 17.1768 109.183 17.5457 108.526 17.8111C107.874 18.072 107.12 18.2024 106.266 18.2024ZM121.521 10.5916L118.889 10.7536C118.844 10.5286 118.748 10.3262 118.599 10.1463C118.451 9.96188 118.255 9.8157 118.012 9.70774C117.774 9.59529 117.488 9.53906 117.155 9.53906C116.71 9.53906 116.335 9.63352 116.029 9.82244C115.723 10.0069 115.57 10.2543 115.57 10.5646C115.57 10.812 115.669 11.0212 115.867 11.1921C116.065 11.363 116.404 11.5002 116.886 11.6037L118.761 11.9815C119.769 12.1884 120.52 12.5213 121.015 12.9801C121.51 13.4389 121.757 14.0417 121.757 14.7884C121.757 15.4676 121.557 16.0636 121.157 16.5763C120.761 17.0891 120.216 17.4895 119.524 17.7773C118.835 18.0607 118.042 18.2024 117.142 18.2024C115.77 18.2024 114.677 17.9168 113.863 17.3455C113.053 16.7698 112.579 15.9871 112.439 14.9975L115.266 14.8491C115.352 15.2674 115.559 15.5868 115.887 15.8072C116.215 16.0231 116.636 16.131 117.149 16.131C117.652 16.131 118.057 16.0343 118.363 15.8409C118.674 15.643 118.831 15.3888 118.835 15.0785C118.831 14.8176 118.721 14.6039 118.505 14.4375C118.289 14.2666 117.956 14.1361 117.506 14.0462L115.712 13.6886C114.699 13.4862 113.946 13.1353 113.451 12.636C112.961 12.1367 112.716 11.5002 112.716 10.7266C112.716 10.0608 112.896 9.48733 113.256 9.00604C113.62 8.52474 114.13 8.15365 114.787 7.89276C115.448 7.63187 116.222 7.50142 117.108 7.50142C118.417 7.50142 119.447 7.77805 120.198 8.33132C120.954 8.88459 121.395 9.63802 121.521 10.5916ZM132.19 10.5916L129.558 10.7536C129.513 10.5286 129.417 10.3262 129.268 10.1463C129.12 9.96188 128.924 9.8157 128.681 9.70774C128.443 9.59529 128.157 9.53906 127.824 9.53906C127.379 9.53906 127.003 9.63352 126.698 9.82244C126.392 10.0069 126.239 10.2543 126.239 10.5646C126.239 10.812 126.338 11.0212 126.536 11.1921C126.734 11.363 127.073 11.5002 127.555 11.6037L129.43 11.9815C130.438 12.1884 131.189 12.5213 131.684 12.9801C132.179 13.4389 132.426 14.0417 132.426 14.7884C132.426 15.4676 132.226 16.0636 131.825 16.5763C131.43 17.0891 130.885 17.4895 130.193 17.7773C129.504 18.0607 128.711 18.2024 127.811 18.2024C126.439 18.2024 125.346 17.9168 124.532 17.3455C123.722 16.7698 123.248 15.9871 123.108 14.9975L125.935 14.8491C126.021 15.2674 126.228 15.5868 126.556 15.8072C126.884 16.0231 127.305 16.131 127.818 16.131C128.321 16.131 128.726 16.0343 129.032 15.8409C129.343 15.643 129.5 15.3888 129.504 15.0785C129.5 14.8176 129.39 14.6039 129.174 14.4375C128.958 14.2666 128.625 14.1361 128.175 14.0462L126.381 13.6886C125.368 13.4862 124.615 13.1353 124.12 12.636C123.63 12.1367 123.385 11.5002 123.385 10.7266C123.385 10.0608 123.565 9.48733 123.925 9.00604C124.289 8.52474 124.799 8.15365 125.456 7.89276C126.117 7.63187 126.891 7.50142 127.777 7.50142C129.086 7.50142 130.116 7.77805 130.867 8.33132C131.623 8.88459 132.064 9.63802 132.19 10.5916Z" fill="#F2B311"/>
<rect y="1" width="51" height="22" rx="3" fill="#60126C"/>
<path d="M8.61719 8.02539H12.2324V12.0391L8.61719 8.02539ZM4.79102 10.3809H4.75586C4.75586 9.57617 4.97461 8.98242 5.41211 8.59961C5.84961 8.2168 6.52344 8.02539 7.43359 8.02539L12.2324 13.8496C12.2324 14.623 12.0234 15.1758 11.6055 15.5078C11.1992 15.832 10.5352 15.9941 9.61328 15.9941L4.79102 10.3809ZM4.77344 11.9629L8.25391 16H4.77344V11.9629ZM22.6914 8.01953H23.2188C24.6562 8.01953 25.5156 8.50781 25.7969 9.48438C25.8867 9.80078 25.9316 10.166 25.9316 10.5801V16H22.6914V8.01953ZM18.3438 8.01953H21.6016V16H18.3438V8.01953ZM13.9844 8.01953H17.2422V16H13.9844V8.01953ZM34.6445 8.02539H37.2695V11.3359H36.6133C36.1836 11.3359 35.8672 11.291 35.6641 11.2012C35.4609 11.1074 35.3008 11.0039 35.1836 10.8906C35.0703 10.7734 34.9727 10.6211 34.8906 10.4336C34.7266 10.0508 34.6445 9.51953 34.6445 8.83984V8.02539ZM30.8535 8.02539H34.0059V16H30.8535V8.02539ZM27.5723 8.02539H30.1973V8.83984C30.1973 9.84375 30.0156 10.5273 29.6523 10.8906C29.3555 11.1875 28.8809 11.3359 28.2285 11.3359H27.5723V8.02539ZM42.5957 8.02539H43.0293C44.1895 8.02539 45.0566 8.30469 45.6309 8.86328C46.1582 9.375 46.4219 10.0996 46.4219 11.0371C46.4219 11.8691 46.1484 12.5391 45.6016 13.0469C45.0195 13.5859 44.2168 13.8555 43.1934 13.8555H42.5957V8.02539ZM38.3887 8.02539H41.541V15.9883H38.3887V8.02539Z" fill="white"/>
</svg>
